<svg width="99" height="37" viewBox="0 0 99 37" fill="none" xmlns="http://www.w3.org/2000/svg">
<path d="M13.98 36.064C13.6067 36.2133 13.224 36.288 12.832 36.288C12.1227 36.2693 11.4787 36.0453 10.9 35.616C10.4893 35.3733 10.172 35.0467 9.948 34.636C9.74267 34.2253 9.65867 33.7867 9.696 33.32C9.864 31.2107 12.776 28.4573 18.432 25.06C18.6747 24.9107 18.8333 24.7053 18.908 24.444L19.272 23.24C19.3467 22.9787 19.272 22.764 19.048 22.596C18.8427 22.428 18.628 22.4093 18.404 22.54C17.5453 23.0627 16.6773 23.548 15.8 23.996C14.9413 24.4253 13.9333 24.8547 12.776 25.284C11.6187 25.7133 10.5173 26.0213 9.472 26.208C8.42667 26.3947 7.33467 26.432 6.196 26.32C5.076 26.208 4.068 25.9 3.172 25.396C2.14533 24.8173 1.39867 23.9773 0.932 22.876C0.465333 21.7747 0.306667 20.4773 0.456 18.984C0.605333 17.3973 1.09067 15.7267 1.912 13.972C2.73333 12.1987 3.77867 10.5093 5.048 8.904C6.336 7.28 7.88533 5.80533 9.696 4.48C11.5067 3.136 13.392 2.13733 15.352 1.484C17.368 0.830664 19.104 0.727997 20.56 1.176C22.016 1.624 23.0147 2.56667 23.556 4.004C23.7987 4.65733 23.9293 5.376 23.948 6.16C23.9853 6.944 23.9013 7.756 23.696 8.596C23.5093 9.41733 23.22 10.2573 22.828 11.116C22.4547 11.956 21.96 12.796 21.344 13.636C20.728 14.476 20.0373 15.2693 19.272 16.016C18.5253 16.7627 17.6573 17.472 16.668 18.144C15.6787 18.7973 14.6333 19.3667 13.532 19.852C13.3453 19.9267 13.1587 19.9267 12.972 19.852C12.7853 19.7773 12.6453 19.6467 12.552 19.46C12.4773 19.2733 12.4773 19.0867 12.552 18.9C12.6267 18.7133 12.7573 18.5827 12.944 18.508C14.008 18.0413 14.9973 17.5 15.912 16.884C16.8453 16.2493 17.6573 15.5867 18.348 14.896C19.0387 14.2053 19.6547 13.4773 20.196 12.712C20.7373 11.9467 21.176 11.1907 21.512 10.444C21.848 9.69733 22.1 8.96933 22.268 8.26C22.436 7.532 22.5107 6.85067 22.492 6.216C22.4733 5.58133 22.3707 5.02133 22.184 4.536C21.7733 3.472 21.0173 2.8 19.916 2.52C18.8333 2.24 17.4707 2.36133 15.828 2.884C13.98 3.48133 12.216 4.40533 10.536 5.656C8.856 6.888 7.41867 8.26 6.224 9.772C5.02933 11.2653 4.04933 12.8333 3.284 14.476C2.51867 16.1187 2.06133 17.668 1.912 19.124C1.66933 21.5693 2.332 23.2307 3.9 24.108C4.684 24.556 5.59867 24.8173 6.644 24.892C7.68933 24.9667 8.69733 24.9013 9.668 24.696C10.6573 24.472 11.7027 24.1453 12.804 23.716C13.9053 23.268 14.8573 22.8387 15.66 22.428C16.4627 21.9987 17.2653 21.532 18.068 21.028C18.8707 20.5053 19.4027 20.1507 19.664 19.964C19.944 19.7773 20.168 19.6187 20.336 19.488C20.5973 19.2827 20.868 19.2733 21.148 19.46C21.4467 19.6467 21.5587 19.908 21.484 20.244C21.372 20.7853 21.232 21.4293 21.064 22.176C20.9893 22.4747 21.0733 22.7267 21.316 22.932C21.5587 23.1187 21.8107 23.1373 22.072 22.988C23.1173 22.428 24.1067 21.924 25.04 21.476C25.2267 21.3827 25.4133 21.3733 25.6 21.448C25.7867 21.5227 25.9267 21.6533 26.02 21.84C26.1133 22.008 26.1227 22.1947 26.048 22.4C25.9733 22.5867 25.852 22.7173 25.684 22.792C24.1347 23.5387 22.548 24.3787 20.924 25.312C20.3453 25.648 19.9533 26.1333 19.748 26.768C17.9747 32.144 16.052 35.2427 13.98 36.064ZM17.34 29.008V29.036C17.4707 28.7 17.396 28.4293 17.116 28.224C16.8547 28 16.5747 27.9907 16.276 28.196C12.972 30.4733 11.2733 32.2187 11.18 33.432C11.1427 33.8053 11.3293 34.132 11.74 34.412C12.244 34.8413 12.804 34.9347 13.42 34.692C14.708 34.1693 16.0147 32.2747 17.34 29.008ZM47.0813 26.936C47.2866 26.9173 47.4639 26.9827 47.6133 27.132C47.7626 27.2627 47.8373 27.4307 47.8373 27.636C47.8373 27.8413 47.7719 28.0187 47.6413 28.168C46.6333 29.2133 45.4106 30.2587 43.9733 31.304C42.5546 32.3307 40.9399 33.236 39.1293 34.02C37.3186 34.7853 35.6853 35.168 34.2293 35.168H34.1733C32.5493 35.224 31.1866 34.664 30.0853 33.488C29.6186 32.9653 29.3386 32.3587 29.2453 31.668C29.2079 31.4067 29.0586 31.2387 28.7973 31.164C28.5546 31.0893 28.3399 31.1453 28.1533 31.332C25.9319 33.6467 24.1866 34.4213 22.9172 33.656C22.4692 33.3947 22.2079 32.9747 22.1332 32.396C22.0399 31.7987 22.1146 31.136 22.3573 30.408C22.5999 29.68 22.8519 29.0453 23.1132 28.504C23.3559 27.9627 23.6266 27.4213 23.9253 26.88C24.0373 26.712 24.1866 26.6093 24.3733 26.572C24.5599 26.516 24.7373 26.5347 24.9053 26.628C25.0733 26.7213 25.1853 26.8613 25.2413 27.048C25.2973 27.2347 25.2879 27.4213 25.2133 27.608C24.7653 28.3733 24.3919 29.1293 24.0933 29.876C23.8133 30.6227 23.6453 31.2013 23.5893 31.612C23.5519 32.004 23.5799 32.2653 23.6733 32.396C24.1399 32.676 25.0079 32.228 26.2773 31.052C27.5653 29.876 28.7693 28.4667 29.8893 26.824C30.0013 26.656 30.1413 26.5533 30.3093 26.516C30.4959 26.4787 30.6733 26.5067 30.8413 26.6C31.0093 26.6747 31.1213 26.796 31.1773 26.964C31.2519 27.132 31.2613 27.3 31.2053 27.468C31.0559 27.8973 30.9159 28.4013 30.7853 28.98C30.6733 29.54 30.6266 30.184 30.6453 30.912C30.6826 31.64 30.8506 32.172 31.1493 32.508C31.9893 33.348 32.9973 33.7493 34.1733 33.712H34.2293C35.5359 33.712 37.0199 33.3387 38.6813 32.592C40.3613 31.8453 41.8639 30.996 43.1893 30.044C44.5333 29.0733 45.6533 28.112 46.5493 27.16C46.6986 27.0107 46.8759 26.936 47.0813 26.936ZM70.1014 27.412C70.3067 27.412 70.4747 27.4867 70.6054 27.636C70.7547 27.7853 70.8294 27.9627 70.8294 28.168C70.8294 28.3547 70.7547 28.5227 70.6054 28.672C68.7947 30.4267 66.5641 31.78 63.9134 32.732C61.2627 33.6653 58.8361 34.132 56.6334 34.132C55.5694 34.188 54.5427 33.992 53.5534 33.544C53.1241 33.3013 52.7787 33.0307 52.5174 32.732C52.2561 32.4333 52.0881 32.116 52.0134 31.78C51.9387 31.4253 51.8921 31.108 51.8734 30.828C51.8734 30.548 51.9387 30.2307 52.0694 29.876C52.2001 29.5027 52.3027 29.2227 52.3774 29.036C52.4707 28.8307 52.5921 28.5787 52.7414 28.28C52.7974 28.168 52.7507 28.1027 52.6014 28.084C52.5267 28.084 52.4241 28.1213 52.2934 28.196C51.2667 28.756 50.1654 29.008 48.9894 28.952C48.4667 28.9707 47.9534 28.868 47.4494 28.644C47.2627 28.7 47.0761 28.6813 46.8894 28.588C46.5907 28.4387 46.4601 28.196 46.4974 27.86C46.2174 27.524 46.0214 27.1413 45.9094 26.712C45.6854 25.9467 45.7041 25.1907 45.9654 24.444C46.2267 23.6973 46.6841 23.0813 47.3374 22.596C48.1214 22.1293 48.7374 22.1107 49.1854 22.54C49.8014 23.1187 49.5961 24.5653 48.5694 26.88C48.5321 26.9733 48.5601 27.104 48.6534 27.272C48.7467 27.4213 48.8587 27.496 48.9894 27.496C50.0721 27.496 51.0894 27.2253 52.0414 26.684C52.3214 26.516 52.5454 26.404 52.7134 26.348C52.8814 26.2733 53.1054 26.2453 53.3854 26.264C53.6654 26.264 53.9267 26.3573 54.1694 26.544C54.4121 26.7307 54.5427 26.9733 54.5614 27.272C54.5801 27.5707 54.5427 27.832 54.4494 28.056C54.3747 28.2613 54.2441 28.5507 54.0574 28.924C53.5907 29.7827 53.3574 30.4733 53.3574 30.996C53.3761 31.5 53.6934 31.9293 54.3094 32.284C54.6827 32.508 55.2894 32.6387 56.1294 32.676C56.9694 32.7133 57.9587 32.6387 59.0974 32.452C60.2361 32.2653 61.4121 31.9853 62.6254 31.612C63.8387 31.2387 65.0707 30.7067 66.3214 30.016C67.5721 29.3067 68.6547 28.504 69.5694 27.608C69.7187 27.4773 69.8961 27.412 70.1014 27.412ZM47.2814 26.096C47.6174 25.3867 47.8787 24.6493 48.0654 23.884C47.3747 24.4813 47.1134 25.2187 47.2814 26.096ZM93.2102 26.936C93.4155 26.9173 93.5928 26.9827 93.7422 27.132C93.8915 27.2627 93.9662 27.4307 93.9662 27.636C93.9662 27.8413 93.9008 28.0187 93.7702 28.168C92.7622 29.2133 91.5395 30.2587 90.1022 31.304C88.6835 32.3307 87.0688 33.236 85.2582 34.02C83.4475 34.7853 81.8142 35.168 80.3582 35.168H80.3022C78.6782 35.224 77.3155 34.664 76.2142 33.488C75.7475 32.9653 75.4675 32.3587 75.3742 31.668C75.3368 31.4067 75.1875 31.2387 74.9262 31.164C74.6835 31.0893 74.4688 31.1453 74.2822 31.332C72.0608 33.6467 70.3155 34.4213 69.0462 33.656C68.5982 33.3947 68.3368 32.9747 68.2622 32.396C68.1688 31.7987 68.2435 31.136 68.4862 30.408C68.7288 29.68 68.9808 29.0453 69.2422 28.504C69.4848 27.9627 69.7555 27.4213 70.0542 26.88C70.1662 26.712 70.3155 26.6093 70.5022 26.572C70.6888 26.516 70.8662 26.5347 71.0342 26.628C71.2022 26.7213 71.3142 26.8613 71.3702 27.048C71.4262 27.2347 71.4168 27.4213 71.3422 27.608C70.8942 28.3733 70.5208 29.1293 70.2222 29.876C69.9422 30.6227 69.7742 31.2013 69.7182 31.612C69.6808 32.004 69.7088 32.2653 69.8022 32.396C70.2688 32.676 71.1368 32.228 72.4062 31.052C73.6942 29.876 74.8982 28.4667 76.0182 26.824C76.1302 26.656 76.2702 26.5533 76.4382 26.516C76.6248 26.4787 76.8022 26.5067 76.9702 26.6C77.1382 26.6747 77.2502 26.796 77.3062 26.964C77.3808 27.132 77.3902 27.3 77.3342 27.468C77.1848 27.8973 77.0448 28.4013 76.9142 28.98C76.8022 29.54 76.7555 30.184 76.7742 30.912C76.8115 31.64 76.9795 32.172 77.2782 32.508C78.1182 33.348 79.1262 33.7493 80.3022 33.712H80.3582C81.6648 33.712 83.1488 33.3387 84.8102 32.592C86.4902 31.8453 87.9928 30.996 89.3182 30.044C90.6622 29.0733 91.7822 28.112 92.6782 27.16C92.8275 27.0107 93.0048 26.936 93.2102 26.936ZM94.5863 33.488C94.5863 32.7973 94.7543 32.312 95.0903 32.032C95.4263 31.752 95.8276 31.612 96.2943 31.612C96.7796 31.612 97.1903 31.752 97.5263 32.032C97.881 32.312 98.0583 32.7973 98.0583 33.488C98.0583 34.16 97.881 34.6453 97.5263 34.944C97.1903 35.2427 96.7796 35.392 96.2943 35.392C95.8276 35.392 95.4263 35.2427 95.0903 34.944C94.7543 34.6453 94.5863 34.16 94.5863 33.488Z" fill="white"/>
</svg>
